<svg version="1.1" id="Layer_1" xmlns="http://www.w3.org/2000/svg" xmlns:xlink="http://www.w3.org/1999/xlink" x="0px" y="0px"
	 width="100%" viewBox="0 0 192 192" enable-background="new 0 0 192 192" xml:space="preserve">
<path fill="#ffffff" opacity="1.000000" stroke="none" 
	d="
M141.371689,131.611542 
	C165.272156,100.328506 148.131073,58.849045 113.919281,49.925350 
	C84.463234,42.242126 54.387871,62.293499 50.135315,92.278923 
	C48.100323,106.627983 51.444969,119.477028 60.154163,130.713974 
	C63.934330,135.591309 63.526134,140.299820 62.875198,145.688553 
	C48.967976,138.240738 37.319965,114.283195 40.828556,90.260239 
	C44.915672,62.276138 68.708397,40.390800 97.786896,38.946068 
	C126.790230,37.505066 151.450256,55.984913 159.351700,82.603767 
	C167.058273,108.566116 155.235626,135.641464 139.161865,146.116119 
	C138.688446,140.930817 137.244858,136.174622 141.371689,131.611542 
z"/>
<path fill="#ffffff" opacity="1.000000" stroke="none" 
	d="
M100.260086,163.169037 
	C96.930611,162.547195 96.927338,160.240738 96.927444,158.076370 
	C96.928299,141.123337 96.930244,124.169968 97.053299,107.217590 
	C97.076157,104.067978 97.155273,100.621208 101.984848,100.943542 
	C104.732140,101.126884 106.310806,102.050720 106.302933,105.113518 
	C106.256790,123.063919 106.241165,141.014771 106.331970,158.964890 
	C106.353317,163.184753 103.773735,163.384186 100.260086,163.169037 
z"/>
<path fill="#ffffff" opacity="1.000000" stroke="none" 
	d="
M89.071732,99.163361 
	C89.064262,115.958023 89.089546,132.274780 88.981827,148.590637 
	C88.965233,151.103912 89.357086,154.092377 85.250198,154.365768 
	C81.137207,154.639542 79.639519,153.095825 79.676239,148.947632 
	C79.823624,132.298950 79.719429,115.648117 79.731956,98.998093 
	C79.734283,95.899132 78.992638,92.602432 84.152740,92.560783 
	C88.963753,92.521935 89.140732,95.281342 89.071732,99.163361 
z"/>
<path fill="#ffffff" opacity="1.000000" stroke="none" 
	d="
M124.315552,112.000626 
	C124.311432,124.656586 124.273132,136.812759 124.325943,148.968536 
	C124.339638,152.119629 124.042580,154.414062 119.864822,154.429825 
	C115.928673,154.444672 115.007072,152.545898 115.012932,149.227859 
	C115.043228,132.076614 115.043686,114.925293 115.026451,97.774017 
	C115.023125,94.470398 115.947609,92.571968 119.884232,92.569328 
	C124.097092,92.566505 124.369774,94.877167 124.314087,98.012970 
	C124.234283,102.507454 124.307457,107.004662 124.315552,112.000626 
z"/>
</svg>